<svg width="16" height="16" viewBox="0 0 16 16" fill="none" xmlns="http://www.w3.org/2000/svg">
	<path d="M14.125 7.57209H3.7475L6.92375 3.52388C7.07227 3.33427 7.14373 3.08982 7.12239 2.8443C7.10106 2.59878 6.98869 2.37232 6.81 2.21471C6.63131 2.05711 6.40094 1.98129 6.16957 2.00393C5.93819 2.02657 5.72477 2.14581 5.57625 2.33542L1.20125 7.90635C1.17182 7.95066 1.14549 7.99721 1.1225 8.04562C1.1225 8.09205 1.1225 8.1199 1.06125 8.16632C1.02159 8.27278 1.00082 8.38611 1 8.50058C1.00082 8.61505 1.02159 8.72838 1.06125 8.83484C1.06125 8.88126 1.06125 8.90912 1.1225 8.95554C1.14549 9.00395 1.17182 9.0505 1.20125 9.09481L5.57625 14.6657C5.65852 14.7706 5.76154 14.8548 5.87799 14.9126C5.99444 14.9704 6.12145 15.0002 6.25 15C6.45445 15.0004 6.65258 14.9249 6.81 14.7864C6.8986 14.7085 6.97184 14.6128 7.02552 14.5047C7.07921 14.3967 7.11228 14.2785 7.12284 14.1569C7.13341 14.0353 7.12126 13.9127 7.0871 13.796C7.05294 13.6794 6.99743 13.5711 6.92375 13.4773L3.7475 9.42907H14.125C14.3571 9.42907 14.5796 9.33125 14.7437 9.15712C14.9078 8.983 15 8.74683 15 8.50058C15 8.25433 14.9078 8.01817 14.7437 7.84404C14.5796 7.66991 14.3571 7.57209 14.125 7.57209Z" fill="#27272A"/>
	<path d="M14.125 7.57209H3.7475L6.92375 3.52388C7.07227 3.33427 7.14373 3.08982 7.12239 2.8443C7.10106 2.59878 6.98869 2.37232 6.81 2.21471C6.63131 2.05711 6.40094 1.98129 6.16957 2.00393C5.93819 2.02657 5.72477 2.14581 5.57625 2.33542L1.20125 7.90635C1.17182 7.95066 1.14549 7.99721 1.1225 8.04562C1.1225 8.09205 1.1225 8.1199 1.06125 8.16632C1.02159 8.27278 1.00082 8.38611 1 8.50058C1.00082 8.61505 1.02159 8.72838 1.06125 8.83484C1.06125 8.88126 1.06125 8.90912 1.1225 8.95554C1.14549 9.00395 1.17182 9.0505 1.20125 9.09481L5.57625 14.6657C5.65852 14.7706 5.76154 14.8548 5.87799 14.9126C5.99444 14.9704 6.12145 15.0002 6.25 15C6.45445 15.0004 6.65258 14.9249 6.81 14.7864C6.8986 14.7085 6.97184 14.6128 7.02552 14.5047C7.07921 14.3967 7.11228 14.2785 7.12284 14.1569C7.13341 14.0353 7.12126 13.9127 7.0871 13.796C7.05294 13.6794 6.99743 13.5711 6.92375 13.4773L3.7475 9.42907H14.125C14.3571 9.42907 14.5796 9.33125 14.7437 9.15712C14.9078 8.983 15 8.74683 15 8.50058C15 8.25433 14.9078 8.01817 14.7437 7.84404C14.5796 7.66991 14.3571 7.57209 14.125 7.57209Z" fill="#27272A"/>
</svg>
